<svg id="b626ddc0-2884-439d-ab3c-0808ca9ff9e2" data-name="Layer 1" xmlns="http://www.w3.org/2000/svg" width="500" height="500" viewBox="0 0 500 500">
  <g>
    <g>
      <g>
        <path d="M368.23,153.8V312.67l-19.71,11.38-19.7,11.37L325,337.64l-15.84,9.16-15.85,9.14-3.85,2.23-19.71,11.38-13,7.5-6.7,3.88-19.34,11.15-.37.22-19.7,11.38-19.71,11.37-2.44,1.41H165a199.64,199.64,0,0,1-23.72-30c-2-3.06-3.87-6.18-5.66-9.37-1.32-2.31-2.6-4.67-3.84-7.05V140.61H210.6V312.67l19.7-11.38,2.7-1.56,2.58-1.49L250,289.9l19.7-11.36,19.71-11.39v-91l10.2-5.89,2.53-1.46,7-4,4.75-2.74,14.25-8.22.7-.41,14.76-8.53A136.91,136.91,0,0,1,368.23,153.8Z" fill="#fff"/>
        <path d="M368.23,153.8V312.67l-19.71,11.38-19.7,11.37L325,337.64l-15.84,9.16-15.85,9.14-3.85,2.23-19.71,11.38-13,7.5-6.7,3.88-19.34,11.15-.37.22-19.7,11.38-19.71,11.37-2.44,1.41H165a199.64,199.64,0,0,1-23.72-30c-2-3.06-3.87-6.18-5.66-9.37-1.32-2.31-2.6-4.67-3.84-7.05V140.61H210.6V312.67l19.7-11.38,2.7-1.56,2.58-1.49L250,289.9l19.7-11.36,19.71-11.39v-91l10.2-5.89,2.53-1.46,7-4,4.75-2.74,14.25-8.22.7-.41,14.76-8.53A136.91,136.91,0,0,1,368.23,153.8Z" fill="#fff"/>
      </g>
      <path d="M266.12,108.54a25.22,25.22,0,0,1-.79,6.24c-.21.8-.46,1.58-.74,2.35a24.7,24.7,0,0,1-5.8,9.08,25.28,25.28,0,0,1-3.7,3.06,24.77,24.77,0,0,1-4.24,2.31c-.75.3-1.52.59-2.3.83a24.93,24.93,0,0,1-7.43,1.13h-25v-25q0-.57,0-1.14c0-.15,0-.31,0-.47,0-.31.05-.63.08-1s.06-.59.11-.88a4.34,4.34,0,0,1,.07-.52c.06-.39.13-.78.22-1.16s.16-.75.25-1.13c.22-.8.46-1.58.74-2.35a22.32,22.32,0,0,1,1-2.36,5.28,5.28,0,0,1,.27-.53c.09-.21.21-.41.32-.62s.21-.38.33-.58.19-.33.31-.49a4.42,4.42,0,0,1,.34-.54,7.51,7.51,0,0,1,.47-.68,1.49,1.49,0,0,1,.2-.29c.17-.25.36-.49.56-.73a22.34,22.34,0,0,1,2-2.26c.29-.28.57-.56.87-.83.66-.6,1.37-1.17,2.09-1.71.25-.18.49-.36.74-.52a25.55,25.55,0,0,1,4.24-2.31c.75-.3,1.52-.59,2.3-.83q.7-.22,1.44-.39c.25-.07.51-.13.76-.18.47-.11.94-.19,1.43-.27s.83-.11,1.24-.15.69-.06,1-.08l.47,0,1.07,0a25,25,0,0,1,25,25Z" fill="#fff"/>
    </g>
    <g>
      <path d="M368.23,153.8V312.67l-19.71,11.38-19.7,11.37L325,337.64l-15.84,9.16-15.85,9.14-3.85,2.23-19.71,11.38-13,7.5-6.7,3.88-19.34,11.15-.37.22-19.7,11.38-19.71,11.37-2.44,1.41H165a199.64,199.64,0,0,1-23.72-30c-2-3.06-3.87-6.18-5.66-9.37-1.32-2.31-2.6-4.67-3.84-7.05V140.61H210.6V312.67l19.7-11.38,2.7-1.56,2.58-1.49L250,289.9l19.7-11.36,19.71-11.39v-91l10.2-5.89,2.53-1.46,7-4,4.75-2.74,14.25-8.22.7-.41,14.76-8.53A136.91,136.91,0,0,1,368.23,153.8Z"/>
      <path d="M266.12,108.54a25.22,25.22,0,0,1-.79,6.24c-.21.8-.46,1.58-.74,2.35a24.7,24.7,0,0,1-5.8,9.08,25.28,25.28,0,0,1-3.7,3.06,24.77,24.77,0,0,1-4.24,2.31c-.75.3-1.52.59-2.3.83a24.93,24.93,0,0,1-7.43,1.13h-25v-25q0-.57,0-1.14c0-.15,0-.31,0-.47,0-.31.05-.63.08-1s.06-.59.11-.88a4.34,4.34,0,0,1,.07-.52c.06-.39.13-.78.22-1.16s.16-.75.25-1.13c.22-.8.46-1.58.74-2.35a22.32,22.32,0,0,1,1-2.36,5.28,5.28,0,0,1,.27-.53c.09-.21.21-.41.32-.62s.21-.38.33-.58.19-.33.31-.49a4.42,4.42,0,0,1,.34-.54,7.51,7.51,0,0,1,.47-.68,1.49,1.49,0,0,1,.2-.29c.17-.25.36-.49.56-.73a22.34,22.34,0,0,1,2-2.26c.29-.28.57-.56.87-.83.66-.6,1.37-1.17,2.09-1.71.25-.18.49-.36.74-.52a25.55,25.55,0,0,1,4.24-2.31c.75-.3,1.52-.59,2.3-.83q.7-.22,1.44-.39c.25-.07.51-.13.76-.18.47-.11.94-.19,1.43-.27s.83-.11,1.24-.15.69-.06,1-.08l.47,0,1.07,0a25,25,0,0,1,25,25Z" fill="#ff0050"/>
    </g>
  </g>
</svg>
